HIERARCHY
ROOT Hips
{
	OFFSET 0.000000 0.000000 0.000000
	CHANNELS 6 Xposition Yposition Zposition Xrotation Yrotation Zrotation
	JOINT LeftUpLeg_virtual
	{
		OFFSET 0.000000 0.000000 0.000000
		CHANNELS 3 Xrotation Yrotation Zrotation
		JOINT LeftUpLeg
		{
			OFFSET 11.394100 -6.187798 -0.413800
			CHANNELS 3 Xrotation Yrotation Zrotation
			JOINT LeftLeg
			{
				OFFSET 0.430247 -32.302673 3.732800
				CHANNELS 3 Xrotation Yrotation Zrotation
				JOINT LeftFoot
				{
					OFFSET -0.430247 -48.264931 -6.423300
					CHANNELS 3 Xrotation Yrotation Zrotation
					JOINT LeftToeBase
					{
						OFFSET 4.230900 -16.068199 23.438400
						CHANNELS 3 Xrotation Yrotation Zrotation
						JOINT LeftToe_End
						{
							OFFSET 4.510700 0.695400 19.974600
							CHANNELS 3 Xrotation Yrotation Zrotation
							End Site
							{
								OFFSET 0 0 0
							}
						}
					}
				}
			}
		}
	}
	JOINT RightUpLeg_virtual
	{
		OFFSET 0.000000 0.000000 0.000000
		CHANNELS 3 Xrotation Yrotation Zrotation
		JOINT RightUpLeg
		{
			OFFSET -11.333700 -6.187798 -0.413800
			CHANNELS 3 Xrotation Yrotation Zrotation
			JOINT RightLeg
			{
				OFFSET -0.430392 -32.302628 3.733000
				CHANNELS 3 Xrotation Yrotation Zrotation
				JOINT RightFoot
				{
					OFFSET 0.430392 -48.264973 -6.423500
					CHANNELS 3 Xrotation Yrotation Zrotation
					JOINT RightToeBase
					{
						OFFSET -4.230900 -16.068199 23.438400
						CHANNELS 3 Xrotation Yrotation Zrotation
						JOINT RightToe_End
						{
							OFFSET -4.510700 0.695400 19.974600
							CHANNELS 3 Xrotation Yrotation Zrotation
							End Site
							{
								OFFSET 0 0 0
							}
						}
					}
				}
			}
		}
	}
	JOINT Spine_virtual
	{
		OFFSET 0.000000 0.000000 0.000000
		CHANNELS 3 Xrotation Yrotation Zrotation
		JOINT Spine
		{
			OFFSET -0.002400 12.777504 0.315300
			CHANNELS 3 Xrotation Yrotation Zrotation
			JOINT Spine1
			{
				OFFSET -0.002067 5.816869 0.032633
				CHANNELS 3 Xrotation Yrotation Zrotation
				JOINT Spine1_split
				{
					OFFSET -0.002067 5.816869 0.032633
					CHANNELS 3 Xrotation Yrotation Zrotation
					JOINT Spine2
					{
						OFFSET -0.002067 5.816869 0.032633
						CHANNELS 3 Xrotation Yrotation Zrotation
						JOINT Neck_virtual
						{
							OFFSET 0.000000 0.000000 0.000000
							CHANNELS 3 Xrotation Yrotation Zrotation
							JOINT Neck
							{
								OFFSET -0.003700 21.199493 -0.826900
								CHANNELS 3 Xrotation Yrotation Zrotation
								JOINT Head
								{
									OFFSET 0.000000 20.442200 4.834800
									CHANNELS 3 Xrotation Yrotation Zrotation
									JOINT HeadTop_End
									{
										OFFSET 0.000000 34.668396 4.968400
										CHANNELS 3 Xrotation Yrotation Zrotation
										End Site
										{
											OFFSET 0 0 0
										}
									}
								}
							}
						}
						JOINT LeftShoulder_virtual
						{
							OFFSET 0.000000 0.000000 0.000000
							CHANNELS 3 Xrotation Yrotation Zrotation
							JOINT LeftShoulder
							{
								OFFSET 3.288150 8.794197 -1.372250
								CHANNELS 3 Xrotation Yrotation Zrotation
								JOINT LeftShoulder_split
								{
									OFFSET 3.288150 8.794197 -1.372250
									CHANNELS 3 Xrotation Yrotation Zrotation
									JOINT LeftArm
									{
										OFFSET 11.953299 -2.279007 -0.146200
										CHANNELS 3 Xrotation Yrotation Zrotation
										JOINT LeftForeArm
										{
											OFFSET 18.448900 0.000000 0.000000
											CHANNELS 3 Xrotation Yrotation Zrotation
											JOINT LeftHand
											{
												OFFSET 29.527798 0.000000 0.000000
												CHANNELS 3 Xrotation Yrotation Zrotation
												End Site
												{
													OFFSET 0 0 0
												}
											}
										}
									}
								}
							}
						}
						JOINT RightShoulder_virtual
						{
							OFFSET 0.000000 0.000000 0.000000
							CHANNELS 3 Xrotation Yrotation Zrotation
							JOINT RightShoulder
							{
								OFFSET -3.249400 8.794197 -1.372250
								CHANNELS 3 Xrotation Yrotation Zrotation
								JOINT RightShoulder_split
								{
									OFFSET -3.249400 8.794197 -1.372250
									CHANNELS 3 Xrotation Yrotation Zrotation
									JOINT RightArm
									{
										OFFSET -11.953299 -2.279007 -0.146200
										CHANNELS 3 Xrotation Yrotation Zrotation
										JOINT RightForeArm
										{
											OFFSET -18.448900 0.000000 0.000000
											CHANNELS 3 Xrotation Yrotation Zrotation
											JOINT RightHand
											{
												OFFSET -29.527802 0.000000 0.000000
												CHANNELS 3 Xrotation Yrotation Zrotation
												End Site
												{
													OFFSET 0 0 0
												}
											}
										}
									}
								}
							}
						}
					}
				}
			}
		}
	}
}
MOTION
Frames: 11
Frame Time: 0.03333333
-0.975945 85.598671 1.490437 0.000000 0.000000 0.000000 19.405071 -43.729880 5.769204 -75.512720 -10.439996 13.893024 46.944891 -6.851661 4.745044 22.114547 -1.695210 -11.422211 -4.451395 0.223346 -2.866498 0.000000 0.000000 0.000000 19.405071 -43.729880 5.769204 -45.314316 -5.904489 -16.591296 56.612371 -9.569447 3.757333 -12.296758 -19.623226 19.693339 -1.117562 -0.000009 -0.000004 0.000000 0.000000 0.000000 19.405071 -43.729880 5.769204 0.723064 6.501695 0.149479 -1.588671 4.492977 -2.192220 0.000000 0.000000 0.000000 0.000000 0.000000 0.000000 -1.597446 -0.195613 1.993553 12.118095 6.829915 -4.433337 -0.737346 20.027404 8.229672 0.000000 0.000000 0.000000 -1.597446 -0.195613 1.993553 3.544242 4.756009 -11.623018 0.000000 0.000000 0.000000 -54.038838 -33.116418 -50.381545 0.000608 -81.882357 0.000593 0.000000 0.000000 0.000000 -1.597446 -0.195613 1.993553 -14.733705 2.115970 -4.463088 0.000000 0.000000 0.000000 -107.662469 41.165957 127.346514 -0.000003 29.080698 0.000004 0.000000 0.000000 0.000000 
-0.754313 86.798668 -5.052341 0.000000 0.000000 0.000000 21.564734 -44.276947 7.181124 -80.388690 -5.329308 10.558211 60.443677 -8.042911 1.123578 10.863447 -2.183048 -11.313319 -4.506375 -0.444211 5.618170 0.000000 0.000000 0.000000 21.564734 -44.276947 7.181124 -50.645467 -6.998964 -14.921009 57.278031 -9.891776 6.766243 -11.785189 -18.547283 13.237022 -4.032516 -0.000015 -0.000009 0.000000 0.000000 0.000000 21.564734 -44.276947 7.181124 1.083885 6.852871 0.734433 -1.310865 4.621465 -2.233297 0.000000 0.000000 0.000000 0.000000 0.000000 0.000000 -1.314412 -0.079140 1.955558 11.539370 6.719170 -4.205102 -1.771499 19.427322 8.399851 0.000000 0.000000 0.000000 -1.314412 -0.079140 1.955558 3.451684 4.257296 -11.406562 0.000000 0.000000 0.000000 -55.761531 -33.679342 -50.844843 -0.000329 -80.674158 -0.000325 0.000000 0.000000 0.000000 -1.314412 -0.079140 1.955558 -14.702143 2.142278 -4.298179 0.000000 0.000000 0.000000 -107.261345 40.351023 126.260992 -0.000015 28.981985 0.000012 0.000000 0.000000 0.000000 
-0.409606 87.973442 -11.340347 0.000000 0.000000 0.000000 25.205649 -46.707955 9.496882 -81.244369 -0.283590 8.424545 68.011411 -7.313730 -1.177310 4.085039 -9.762463 -9.133538 -4.879007 -0.514763 6.008193 0.000000 0.000000 0.000000 25.205649 -46.707955 9.496882 -54.811127 -9.552061 -13.748072 56.094971 -10.677913 9.965893 -11.300944 -11.642950 8.989072 -6.473998 0.000010 -0.000004 0.000000 0.000000 0.000000 25.205649 -46.707955 9.496882 0.935413 8.415468 1.282413 -1.320866 5.331379 -2.300519 0.000000 0.000000 0.000000 0.000000 0.000000 0.000000 -1.329633 0.607865 1.876773 11.123524 6.435094 -4.023546 -2.350633 18.589401 8.709354 0.000000 0.000000 0.000000 -1.329633 0.607865 1.876773 3.596418 4.391567 -11.859934 0.000000 0.000000 0.000000 -57.750875 -35.526198 -51.867572 -0.000043 -78.626911 -0.000074 0.000000 0.000000 0.000000 -1.329633 0.607865 1.876773 -14.638250 2.328210 -4.086761 0.000000 0.000000 0.000000 -106.215186 40.122509 124.749061 0.000003 29.445512 -0.000012 0.000000 0.000000 0.000000 
-0.108256 88.499802 -17.555157 0.000000 0.000000 0.000000 29.248871 -49.774344 12.314488 -79.273361 1.912420 5.915199 69.902478 -7.913842 -2.076926 1.963312 -15.088696 -4.344307 -6.384086 -0.172188 3.463315 0.000000 0.000000 0.000000 29.248871 -49.774344 12.314488 -58.525173 -12.484404 -12.672724 56.959017 -12.891635 9.858139 -11.070651 -2.304794 12.440542 -9.317374 0.000029 0.000005 0.000000 0.000000 0.000000 29.248871 -49.774344 12.314488 0.689951 10.053898 1.400567 -1.412603 6.214296 -2.374921 0.000000 0.000000 0.000000 0.000000 0.000000 0.000000 -1.420889 1.466136 1.785863 10.672289 6.126703 -3.745103 -2.899199 17.818767 9.146390 0.000000 0.000000 0.000000 -1.420889 1.466136 1.785863 3.755952 4.786400 -12.306308 0.000000 0.000000 0.000000 -59.645242 -36.720712 -52.832015 -0.000047 -77.533562 -0.000066 0.000000 0.000000 0.000000 -1.420889 1.466136 1.785863 -14.573081 2.615662 -3.942827 0.000000 0.000000 0.000000 -105.630918 39.843447 123.612518 0.000008 30.127493 -0.000004 0.000000 0.000000 0.000000 
0.107000 88.064407 -23.591343 0.000000 0.000000 0.000000 32.056383 -52.585572 14.444561 -75.042885 1.218881 2.338301 67.956639 -7.633292 -0.984090 -2.256764 -13.764318 5.014701 -10.550627 0.000008 0.000013 0.000000 0.000000 0.000000 32.056383 -52.585572 14.444561 -61.154973 -12.131353 -14.456456 61.210339 -10.160951 9.552534 -10.178669 -3.891500 20.068349 -2.959562 -0.000024 -0.000002 0.000000 0.000000 0.000000 32.056383 -52.585572 14.444561 0.588730 10.995777 1.177935 -1.441039 6.935547 -2.342152 0.000000 0.000000 0.000000 0.000000 0.000000 0.000000 -1.434992 2.171090 1.809962 10.244962 5.870862 -3.303348 -3.281008 17.247087 9.632431 0.000000 0.000000 0.000000 -1.434992 2.171090 1.809962 3.737825 5.186352 -12.169491 0.000000 0.000000 0.000000 -61.002810 -36.579471 -53.384516 0.000238 -77.789762 0.000262 0.000000 0.000000 0.000000 -1.434992 2.171090 1.809962 -14.485477 2.979855 -3.728751 0.000000 0.000000 0.000000 -105.450881 39.117006 123.007049 -0.000011 30.733683 0.000005 0.000000 0.000000 0.000000 
0.112136 86.721367 -29.204945 0.000000 0.000000 0.000000 33.038776 -55.026494 14.625540 -73.110331 -1.791584 1.391951 66.402846 -8.312519 0.830639 -6.199790 -8.078903 10.727817 -7.218429 0.000009 -0.000005 0.000000 0.000000 0.000000 33.038776 -55.026494 14.625540 -57.929628 -8.833543 -16.419776 63.633116 -12.257134 8.896537 -8.153144 -9.433436 28.086972 -3.133409 0.172018 -3.490916 0.000000 0.000000 0.000000 33.038776 -55.026494 14.625540 0.355091 11.380473 1.574910 -1.453263 7.305007 -2.104962 0.000000 0.000000 0.000000 0.000000 0.000000 0.000000 -1.422325 2.536740 2.054907 10.042761 5.701884 -2.874020 -3.276329 16.932498 9.977248 0.000000 0.000000 0.000000 -1.422325 2.536740 2.054907 3.550927 5.581990 -11.496883 0.000000 0.000000 0.000000 -61.351170 -35.791670 -53.544264 0.000022 -78.530025 -0.000007 0.000000 0.000000 0.000000 -1.422325 2.536740 2.054907 -14.353373 3.472790 -3.349508 0.000000 0.000000 0.000000 -105.291888 38.536590 122.713200 0.000014 31.045634 -0.000013 0.000000 0.000000 0.000000 
-0.234593 84.556732 -34.428211 0.000000 0.000000 0.000000 32.803490 -56.451944 14.153309 -76.680799 -4.956907 3.775536 69.891591 -9.819547 1.867717 -8.553809 -4.412922 7.239330 -0.957195 0.000008 0.000002 0.000000 0.000000 0.000000 32.803490 -56.451944 14.153309 -51.287822 -4.442566 -18.541645 62.707147 -10.989185 8.170095 -7.174576 -19.607352 25.859673 -0.437421 -0.000020 -0.000001 0.000000 0.000000 0.000000 32.803490 -56.451944 14.153309 0.056169 11.103312 1.715591 -1.494041 7.307610 -1.923199 0.000000 0.000000 0.000000 0.000000 0.000000 0.000000 -1.447118 2.538748 2.256061 10.008601 5.653022 -2.565980 -3.392218 16.737218 10.459930 0.000000 0.000000 0.000000 -1.447118 2.538748 2.256061 3.334878 5.817573 -10.768850 0.000000 0.000000 0.000000 -61.147747 -35.377060 -53.281554 0.000044 -78.871473 0.000021 0.000000 0.000000 0.000000 -1.447118 2.538748 2.256061 -14.235484 3.916848 -2.985949 0.000000 0.000000 0.000000 -105.275222 38.396772 122.510999 -0.000003 31.020335 0.000001 0.000000 0.000000 0.000000 
-0.729924 82.331955 -39.376713 0.000000 0.000000 0.000000 32.169289 -56.781401 14.268265 -81.395952 -6.486505 7.230986 73.418578 -9.582113 1.904007 -7.992668 -6.400196 3.605367 -0.711871 -0.000012 0.000002 0.000000 0.000000 0.000000 32.169289 -56.781401 14.268265 -42.285517 -1.827628 -19.887363 55.950697 -10.415096 4.159592 -4.053633 -28.385474 21.756449 -0.581546 0.000022 0.000008 0.000000 0.000000 0.000000 32.169289 -56.781401 14.268265 -0.111587 10.557678 1.126421 -1.542906 7.113657 -2.007058 0.000000 0.000000 0.000000 0.000000 0.000000 0.000000 -1.506400 2.348789 2.188367 10.057317 5.616586 -2.442210 -3.801612 16.215219 11.127195 0.000000 0.000000 0.000000 -1.506400 2.348789 2.188367 3.229231 5.569757 -10.469489 0.000000 0.000000 0.000000 -61.046803 -35.698609 -52.721909 0.000211 -78.556485 0.000223 0.000000 0.000000 0.000000 -1.506400 2.348789 2.188367 -14.212874 3.948339 -2.841240 0.000000 0.000000 0.000000 -105.256186 38.350051 122.318470 -0.000005 30.788191 0.000002 0.000000 0.000000 0.000000 
-1.230852 80.369911 -44.124393 0.000000 0.000000 0.000000 31.190435 -56.659448 14.843680 -85.587946 -7.359983 10.505052 75.803475 -8.990878 1.491997 -5.710842 -10.084241 0.658644 -2.109519 0.000014 -0.000002 0.000000 0.000000 0.000000 31.190435 -56.659448 14.843680 -31.125749 -0.253428 -22.892774 45.648132 -8.818205 -1.220912 3.848549 -29.772340 27.963758 -4.670129 0.000013 0.000002 0.000000 0.000000 0.000000 31.190435 -56.659448 14.843680 -0.087570 10.186153 0.073896 -1.564682 6.937740 -2.234467 0.000000 0.000000 0.000000 0.000000 0.000000 0.000000 -1.550379 2.186471 1.969676 10.256928 5.472194 -2.556340 -3.841645 15.196341 11.489965 0.000000 0.000000 0.000000 -1.550379 2.186471 1.969676 3.282740 4.847616 -10.756194 0.000000 0.000000 0.000000 -61.042186 -36.454373 -52.156609 -0.000256 -77.891505 -0.000259 0.000000 0.000000 0.000000 -1.550379 2.186471 1.969676 -14.284288 3.581175 -2.943438 0.000000 0.000000 0.000000 -104.954162 38.366904 122.101338 0.000021 30.519505 -0.000010 0.000000 0.000000 0.000000 
-1.567466 78.687416 -49.008198 0.000000 0.000000 0.000000 30.198326 -57.007375 15.858671 -87.864776 -8.584915 12.834971 76.361351 -8.399960 1.569547 -3.802024 -12.068504 -3.044002 -2.604851 -0.000017 -0.000010 0.000000 0.000000 0.000000 30.198326 -57.007375 15.858671 -21.083006 0.197304 -24.433709 34.979345 -10.181725 -8.111342 13.571272 -30.716597 32.241341 -6.475087 0.000007 -0.000010 0.000000 0.000000 0.000000 30.198326 -57.007375 15.858671 0.175741 10.160031 -1.380932 -1.445906 6.883736 -2.479886 0.000000 0.000000 0.000000 0.000000 0.000000 0.000000 -1.437365 2.154575 1.742635 10.503752 5.259777 -2.849510 -3.232143 14.165004 11.146800 0.000000 0.000000 0.000000 -1.437365 2.154575 1.742635 3.443611 4.197402 -11.398955 0.000000 0.000000 0.000000 -60.879996 -37.143624 -51.931663 0.000143 -77.288959 0.000161 0.000000 0.000000 0.000000 -1.437365 2.154575 1.742635 -14.393551 3.219231 -3.282609 0.000000 0.000000 0.000000 -104.731375 38.866519 121.968846 0.000009 30.312943 -0.000002 0.000000 0.000000 0.000000 
-1.634588 77.413162 -54.244511 0.000000 0.000000 0.000000 29.900502 -58.513322 17.304315 -87.837005 -10.794144 14.632179 74.976592 -7.647760 2.442739 -2.645361 -11.927465 -8.200158 -2.034452 -0.000019 -0.000006 0.000000 0.000000 0.000000 29.900502 -58.513322 17.304315 -13.454055 0.784705 -26.060296 26.924076 -10.944609 -11.515503 20.341367 -30.971739 32.361621 -3.603372 -0.000013 0.000015 0.000000 0.000000 0.000000 29.900502 -58.513322 17.304315 0.393958 10.512383 -2.527343 -1.320420 6.942786 -2.671817 0.000000 0.000000 0.000000 0.000000 0.000000 0.000000 -1.304252 2.232751 1.571225 10.734317 5.115962 -3.115002 -2.231658 13.703689 10.374631 0.000000 0.000000 0.000000 -1.304252 2.232751 1.571225 3.611032 4.105584 -11.972103 0.000000 0.000000 0.000000 -60.470533 -37.205857 -52.059517 0.000193 -77.263783 0.000206 0.000000 0.000000 0.000000 -1.304252 2.232751 1.571225 -14.482936 3.134031 -3.735795 0.000000 0.000000 0.000000 -104.873866 39.624718 122.166007 -0.000008 30.302793 0.000025 0.000000 0.000000 0.000000 
